<svg width="367" height="123" viewBox="0 0 367 123" fill="none" xmlns="http://www.w3.org/2000/svg">
<path d="M46.1147 0H67.2696V50.096C67.2696 56.0526 65.8491 61.2073 63.0081 65.5601C60.1926 69.8875 56.2609 73.2349 51.2131 75.6022C46.1654 77.9441 40.3059 79.1151 33.6348 79.1151C26.9129 79.1151 21.0281 77.9441 15.9803 75.6022C10.9326 73.2349 7.00091 69.8875 4.18532 65.5601C1.39511 61.2073 0 56.0526 0 50.096V0H21.1549V48.2632C21.1549 50.6815 21.6876 52.8452 22.7529 54.7543C23.8183 56.638 25.2895 58.1144 27.1666 59.1836C29.069 60.2527 31.225 60.7873 33.6348 60.7873C36.0699 60.7873 38.226 60.2527 40.103 59.1836C41.9801 58.1144 43.4513 56.638 44.5166 54.7543C45.582 52.8452 46.1147 50.6815 46.1147 48.2632V0Z" fill="white"/>
<path d="M87.673 78.1987V19.5497H108.067V30.6991H108.676C109.741 26.5753 111.428 23.5589 113.736 21.6497C116.07 19.7406 118.797 18.786 121.917 18.786C122.83 18.786 123.73 18.8624 124.618 19.0151C125.531 19.1424 126.406 19.3333 127.243 19.5879V37.572C126.203 37.2156 124.922 36.9484 123.4 36.7702C121.879 36.592 120.572 36.5029 119.481 36.5029C117.427 36.5029 115.575 36.9738 113.926 37.9157C112.303 38.8321 111.022 40.1303 110.084 41.8103C109.145 43.4649 108.676 45.4123 108.676 47.6523V78.1987H87.673Z" fill="white"/>
<path d="M143.87 78.1987V0H164.873V29.7827H165.178C165.939 27.7972 167.055 25.9771 168.526 24.3225C169.997 22.6425 171.823 21.3061 174.005 20.3133C176.186 19.2951 178.723 18.786 181.614 18.786C185.47 18.786 189.135 19.817 192.61 21.8788C196.111 23.9407 198.952 27.1863 201.133 31.6155C203.34 36.0447 204.444 41.7976 204.444 48.8742C204.444 55.6453 203.391 61.2582 201.286 65.7129C199.206 70.1675 196.415 73.4894 192.915 75.6786C189.44 77.8678 185.622 78.9623 181.462 78.9623C178.723 78.9623 176.275 78.5169 174.119 77.6259C171.988 76.7095 170.162 75.475 168.64 73.9222C167.143 72.344 165.989 70.5621 165.178 68.5766H164.721V78.1987H143.87ZM164.417 48.8742C164.417 51.7252 164.784 54.1943 165.52 56.2817C166.281 58.3435 167.346 59.9472 168.716 61.0927C170.111 62.2128 171.773 62.7728 173.7 62.7728C175.628 62.7728 177.264 62.2255 178.609 61.1309C179.978 60.0109 181.018 58.4199 181.729 56.358C182.464 54.2707 182.832 51.7761 182.832 48.8742C182.832 45.9723 182.464 43.4904 181.729 41.4285C181.018 39.3412 179.978 37.7502 178.609 36.6556C177.264 35.5356 175.628 34.9756 173.7 34.9756C171.773 34.9756 170.111 35.5356 168.716 36.6556C167.346 37.7502 166.281 39.3412 165.52 41.4285C164.784 43.4904 164.417 45.9723 164.417 48.8742Z" fill="white"/>
<path d="M251.433 79.2678C245.092 79.2678 239.664 78.0078 235.149 75.4877C230.634 72.9422 227.171 69.4039 224.761 64.8728C222.352 60.3163 221.147 55.0344 221.147 49.0269C221.147 43.0195 222.352 37.7502 224.761 33.2192C227.171 28.6627 230.634 25.1244 235.149 22.6043C239.664 20.0588 245.092 18.786 251.433 18.786C257.166 18.786 262.125 19.8297 266.31 21.917C270.521 23.9789 273.78 26.9063 276.089 30.6991C278.397 34.4665 279.564 38.8957 279.589 43.9868H260.108C259.829 40.9067 258.942 38.5648 257.445 36.9611C255.974 35.332 254.071 34.5174 251.738 34.5174C249.911 34.5174 248.313 35.0519 246.944 36.1211C245.574 37.1647 244.508 38.7557 243.748 40.8939C242.987 43.0067 242.606 45.6668 242.606 48.8742C242.606 52.0815 242.987 54.7543 243.748 56.8926C244.508 59.0054 245.574 60.5963 246.944 61.6655C248.313 62.7091 249.911 63.231 251.738 63.231C253.285 63.231 254.655 62.8746 255.847 62.1618C257.039 61.4236 258.003 60.3545 258.739 58.9545C259.5 57.529 259.956 55.798 260.108 53.7616H279.589C279.513 58.929 278.334 63.4346 276.051 67.2784C273.768 71.0967 270.534 74.0495 266.348 76.1368C262.188 78.2241 257.217 79.2678 251.433 79.2678Z" fill="white"/>
<path d="M326.455 79.2678C320.114 79.2678 314.686 78.0078 310.171 75.4877C305.655 72.9422 302.193 69.4039 299.783 64.8728C297.374 60.3163 296.169 55.0344 296.169 49.0269C296.169 43.0195 297.374 37.7502 299.783 33.2192C302.193 28.6627 305.655 25.1244 310.171 22.6043C314.686 20.0588 320.114 18.786 326.455 18.786C332.797 18.786 338.225 20.0588 342.74 22.6043C347.255 25.1244 350.717 28.6627 353.127 33.2192C355.537 37.7502 356.742 43.0195 356.742 49.0269C356.742 55.0344 355.537 60.3163 353.127 64.8728C350.717 69.4039 347.255 72.9422 342.74 75.4877C338.225 78.0078 332.797 79.2678 326.455 79.2678ZM326.607 63.6892C328.383 63.6892 329.918 63.091 331.211 61.8946C332.505 60.6982 333.507 58.9927 334.217 56.778C334.927 54.5634 335.282 51.9288 335.282 48.8742C335.282 45.7941 334.927 43.1595 334.217 40.9703C333.507 38.7557 332.505 37.0502 331.211 35.8538C329.918 34.6574 328.383 34.0592 326.607 34.0592C324.73 34.0592 323.12 34.6574 321.775 35.8538C320.431 37.0502 319.404 38.7557 318.693 40.9703C317.983 43.1595 317.628 45.7941 317.628 48.8742C317.628 51.9288 317.983 54.5634 318.693 56.778C319.404 58.9927 320.431 60.6982 321.775 61.8946C323.12 63.091 324.73 63.6892 326.607 63.6892Z" fill="white"/>
<path d="M33.546 123V96.9338H37.465V119.614H49.2346V123H33.546Z" fill="white"/>
<path d="M83.2943 96.9338V123H79.3753V96.9338H83.2943Z" fill="white"/>
<path d="M114.672 96.9338H119.428L127.697 117.196H128.001L136.27 96.9338H141.026V123H137.298V104.138H137.057L129.396 122.962H126.302L118.641 104.125H118.4V123H114.672V96.9338Z" fill="white"/>
<path d="M176.313 96.9338V123H172.394V96.9338H176.313Z" fill="white"/>
<path d="M206.409 100.319V96.9338H226.512V100.319H218.407V123H214.501V100.319H206.409Z" fill="white"/>
<path d="M256.624 123V96.9338H272.908V100.319H260.543V108.261H272.059V111.634H260.543V119.614H273.061V123H256.624Z" fill="white"/>
<path d="M312.222 123H303.813V96.9338H312.488C315.033 96.9338 317.219 97.4556 319.045 98.4993C320.872 99.5345 322.271 101.024 323.243 102.967C324.224 104.901 324.715 107.222 324.715 109.929C324.715 112.644 324.22 114.977 323.231 116.929C322.25 118.88 320.829 120.382 318.969 121.435C317.109 122.478 314.86 123 312.222 123ZM307.732 119.564H312.006C313.985 119.564 315.629 119.19 316.94 118.444C318.251 117.688 319.231 116.598 319.882 115.172C320.533 113.739 320.859 111.991 320.859 109.929C320.859 107.884 320.533 106.149 319.882 104.723C319.24 103.298 318.28 102.216 317.003 101.478C315.727 100.739 314.141 100.37 312.247 100.37H307.732V119.564Z" fill="white"/>
<path d="M360.741 24.6231C359.87 24.6231 359.054 24.4548 358.295 24.1181C357.536 23.7756 356.871 23.3031 356.3 22.7006C355.729 22.0981 355.282 21.3953 354.958 20.592C354.634 19.7828 354.472 18.9116 354.472 17.9784C354.472 17.0452 354.634 16.1799 354.958 15.3825C355.282 14.5793 355.729 13.8764 356.3 13.2739C356.871 12.6715 357.536 12.2019 358.295 11.8653C359.054 11.5286 359.87 11.3603 360.741 11.3603C361.606 11.3603 362.418 11.5286 363.177 11.8653C363.937 12.2019 364.602 12.6715 365.173 13.2739C365.743 13.8764 366.191 14.5793 366.514 15.3825C366.838 16.1799 367 17.0452 367 17.9784C367 18.9116 366.838 19.7828 366.514 20.592C366.191 21.3953 365.74 22.0981 365.164 22.7006C364.593 23.3031 363.928 23.7756 363.168 24.1181C362.415 24.4548 361.606 24.6231 360.741 24.6231ZM360.741 23.5511C361.459 23.5511 362.13 23.4094 362.754 23.1259C363.383 22.8424 363.937 22.4466 364.413 21.9387C364.89 21.4307 365.261 20.8401 365.526 20.1667C365.796 19.4875 365.932 18.7581 365.932 17.9784C365.932 17.1988 365.796 16.4752 365.526 15.8078C365.261 15.1345 364.89 14.5468 364.413 14.0447C363.937 13.5427 363.383 13.1499 362.754 12.8664C362.13 12.5829 361.459 12.4411 360.741 12.4411C360.017 12.4411 359.34 12.5829 358.71 12.8664C358.08 13.144 357.527 13.5368 357.05 14.0447C356.574 14.5468 356.2 15.1345 355.929 15.8078C355.664 16.4752 355.532 17.1988 355.532 17.9784C355.532 18.7581 355.664 19.4875 355.929 20.1667C356.2 20.8401 356.574 21.4307 357.05 21.9387C357.527 22.4466 358.08 22.8424 358.71 23.1259C359.34 23.4094 360.017 23.5511 360.741 23.5511ZM360.617 21.9387C359.675 21.9387 358.925 21.6256 358.366 20.9995C357.813 20.3735 357.536 19.5436 357.536 18.51V17.4557C357.536 16.4339 357.813 15.607 358.366 14.975C358.925 14.343 359.675 14.027 360.617 14.027C361.541 14.027 362.262 14.2603 362.78 14.7269C363.298 15.1935 363.545 15.8669 363.522 16.7469L363.504 16.8001H362.215C362.215 16.239 362.08 15.8314 361.809 15.5775C361.544 15.3176 361.147 15.1876 360.617 15.1876C360.058 15.1876 359.628 15.3973 359.328 15.8167C359.028 16.2301 358.878 16.7735 358.878 17.4468V18.51C358.878 19.201 359.028 19.7533 359.328 20.1667C359.628 20.5802 360.058 20.7869 360.617 20.7869C361.147 20.7869 361.544 20.6599 361.809 20.406C362.074 20.152 362.206 19.7356 362.206 19.1567H363.495L363.513 19.2099C363.536 20.1018 363.289 20.781 362.771 21.2476C362.259 21.7083 361.541 21.9387 360.617 21.9387Z" fill="white"/>
</svg>
