<svg width="167" height="58" viewBox="0 0 167 58" fill="none" xmlns="http://www.w3.org/2000/svg">
<path d="M22.9091 1.09091H32.3864V23.4545C32.3864 26.1136 31.75 28.4148 30.4773 30.358C29.2159 32.2898 27.4545 33.7841 25.1932 34.8409C22.9318 35.8864 20.3068 36.4091 17.3182 36.4091C14.3068 36.4091 11.6705 35.8864 9.40909 34.8409C7.14773 33.7841 5.38636 32.2898 4.125 30.358C2.875 28.4148 2.25 26.1136 2.25 23.4545V1.09091H11.7273V22.6364C11.7273 23.7159 11.9659 24.6818 12.4432 25.5341C12.9205 26.375 13.5795 27.0341 14.4205 27.5114C15.2727 27.9886 16.2386 28.2273 17.3182 28.2273C18.4091 28.2273 19.375 27.9886 20.2159 27.5114C21.0568 27.0341 21.7159 26.375 22.1932 25.5341C22.6705 24.6818 22.9091 23.7159 22.9091 22.6364V1.09091ZM41.527 36V9.81818H50.6634V14.7955H50.9361C51.4134 12.9545 52.169 11.608 53.2031 10.7557C54.2486 9.90341 55.4702 9.47727 56.8679 9.47727C57.277 9.47727 57.6804 9.51136 58.0781 9.57955C58.4872 9.63636 58.8793 9.72159 59.2543 9.83523V17.8636C58.7884 17.7045 58.2145 17.5852 57.5327 17.5057C56.8509 17.4261 56.2656 17.3864 55.777 17.3864C54.8565 17.3864 54.027 17.5966 53.2884 18.017C52.5611 18.4261 51.9872 19.0057 51.5668 19.7557C51.1463 20.4943 50.9361 21.3636 50.9361 22.3636V36H41.527ZM66.7031 36V1.09091H76.1122V14.3864H76.2486C76.5895 13.5 77.0895 12.6875 77.7486 11.9489C78.4077 11.1989 79.2259 10.6023 80.2031 10.1591C81.1804 9.70455 82.3168 9.47727 83.6122 9.47727C85.3395 9.47727 86.9815 9.9375 88.5384 10.858C90.1065 11.7784 91.3793 13.2273 92.3565 15.2045C93.3452 17.1818 93.8395 19.75 93.8395 22.9091C93.8395 25.9318 93.3679 28.4375 92.4247 30.4261C91.4929 32.4148 90.2429 33.8977 88.6747 34.875C87.1179 35.8523 85.4077 36.3409 83.544 36.3409C82.3168 36.3409 81.2202 36.142 80.2543 35.7443C79.2997 35.3352 78.4815 34.7841 77.7997 34.0909C77.1293 33.3864 76.6122 32.5909 76.2486 31.7045H76.044V36H66.7031ZM75.9077 22.9091C75.9077 24.1818 76.0724 25.2841 76.402 26.2159C76.7429 27.1364 77.2202 27.8523 77.8338 28.3636C78.4588 28.8636 79.2031 29.1136 80.0668 29.1136C80.9304 29.1136 81.6634 28.8693 82.2656 28.3807C82.8793 27.8807 83.3452 27.1705 83.6634 26.25C83.9929 25.3182 84.1577 24.2045 84.1577 22.9091C84.1577 21.6136 83.9929 20.5057 83.6634 19.5852C83.3452 18.6534 82.8793 17.9432 82.2656 17.4545C81.6634 16.9545 80.9304 16.7045 80.0668 16.7045C79.2031 16.7045 78.4588 16.9545 77.8338 17.4545C77.2202 17.9432 76.7429 18.6534 76.402 19.5852C76.0724 20.5057 75.9077 21.6136 75.9077 22.9091ZM114.891 36.4773C112.05 36.4773 109.618 35.9148 107.595 34.7898C105.572 33.6534 104.021 32.0739 102.942 30.0511C101.862 28.017 101.322 25.6591 101.322 22.9773C101.322 20.2955 101.862 17.9432 102.942 15.9205C104.021 13.8864 105.572 12.3068 107.595 11.1818C109.618 10.0455 112.05 9.47727 114.891 9.47727C117.459 9.47727 119.68 9.94318 121.555 10.875C123.442 11.7955 124.902 13.1023 125.936 14.7955C126.97 16.4773 127.493 18.4545 127.504 20.7273H118.777C118.652 19.3523 118.254 18.3068 117.584 17.5909C116.925 16.8636 116.072 16.5 115.027 16.5C114.209 16.5 113.493 16.7386 112.879 17.2159C112.266 17.6818 111.788 18.392 111.447 19.3466C111.107 20.2898 110.936 21.4773 110.936 22.9091C110.936 24.3409 111.107 25.5341 111.447 26.4886C111.788 27.4318 112.266 28.142 112.879 28.6193C113.493 29.0852 114.209 29.3182 115.027 29.3182C115.72 29.3182 116.334 29.1591 116.868 28.8409C117.402 28.5114 117.834 28.0341 118.163 27.4091C118.504 26.7727 118.709 26 118.777 25.0909H127.504C127.47 27.3977 126.942 29.4091 125.919 31.125C124.896 32.8295 123.447 34.1477 121.572 35.0795C119.709 36.0114 117.482 36.4773 114.891 36.4773ZM148.5 36.4773C145.659 36.4773 143.227 35.9148 141.205 34.7898C139.182 33.6534 137.631 32.0739 136.551 30.0511C135.472 28.017 134.932 25.6591 134.932 22.9773C134.932 20.2955 135.472 17.9432 136.551 15.9205C137.631 13.8864 139.182 12.3068 141.205 11.1818C143.227 10.0455 145.659 9.47727 148.5 9.47727C151.341 9.47727 153.773 10.0455 155.795 11.1818C157.818 12.3068 159.369 13.8864 160.449 15.9205C161.528 17.9432 162.068 20.2955 162.068 22.9773C162.068 25.6591 161.528 28.017 160.449 30.0511C159.369 32.0739 157.818 33.6534 155.795 34.7898C153.773 35.9148 151.341 36.4773 148.5 36.4773ZM148.568 29.5227C149.364 29.5227 150.051 29.2557 150.631 28.7216C151.21 28.1875 151.659 27.4261 151.977 26.4375C152.295 25.4489 152.455 24.2727 152.455 22.9091C152.455 21.5341 152.295 20.358 151.977 19.3807C151.659 18.392 151.21 17.6307 150.631 17.0966C150.051 16.5625 149.364 16.2955 148.568 16.2955C147.727 16.2955 147.006 16.5625 146.403 17.0966C145.801 17.6307 145.341 18.392 145.023 19.3807C144.705 20.358 144.545 21.5341 144.545 22.9091C144.545 24.2727 144.705 25.4489 145.023 26.4375C145.341 27.4261 145.801 28.1875 146.403 28.7216C147.006 29.2557 147.727 29.5227 148.568 29.5227Z" fill="#852472"/>
<path d="M17.2784 56V44.3636H19.0341V54.4886H24.3068V56H17.2784ZM39.5653 44.3636V56H37.8097V44.3636H39.5653ZM53.6222 44.3636H55.7528L59.4574 53.4091H59.5938L63.2983 44.3636H65.429V56H63.7585V47.5795H63.6506L60.2188 55.983H58.8324L55.4006 47.5739H55.2926V56H53.6222V44.3636ZM81.2372 44.3636V56H79.4815V44.3636H81.2372ZM94.7202 45.875V44.3636H103.726V45.875H100.095V56H98.3452V45.875H94.7202ZM117.216 56V44.3636H124.511V45.875H118.972V49.4205H124.131V50.9261H118.972V54.4886H124.58V56H117.216ZM142.124 56H138.357V44.3636H142.243C143.383 44.3636 144.362 44.5966 145.18 45.0625C145.999 45.5246 146.625 46.1894 147.061 47.0568C147.5 47.9205 147.72 48.9564 147.72 50.1648C147.72 51.3769 147.499 52.4186 147.055 53.2898C146.616 54.161 145.98 54.8314 145.146 55.3011C144.313 55.767 143.305 56 142.124 56ZM140.112 54.4659H142.027C142.913 54.4659 143.65 54.2992 144.237 53.9659C144.824 53.6288 145.264 53.142 145.555 52.5057C145.847 51.8655 145.993 51.0852 145.993 50.1648C145.993 49.2519 145.847 48.4773 145.555 47.8409C145.268 47.2045 144.838 46.7216 144.266 46.392C143.694 46.0625 142.983 45.8977 142.135 45.8977H140.112V54.4659Z" fill="#852472"/>
<path d="M163.86 12.0831C163.469 12.0831 163.104 12.0079 162.764 11.8576C162.424 11.7047 162.126 11.4937 161.87 11.2248C161.615 10.9559 161.414 10.6421 161.269 10.2835C161.124 9.92227 161.052 9.53335 161.052 9.11675C161.052 8.70015 161.124 8.31387 161.269 7.95791C161.414 7.59932 161.615 7.28555 161.87 7.0166C162.126 6.74766 162.424 6.53804 162.764 6.38774C163.104 6.23745 163.469 6.1623 163.86 6.1623C164.247 6.1623 164.611 6.23745 164.951 6.38774C165.291 6.53804 165.589 6.74766 165.845 7.0166C166.101 7.28555 166.301 7.59932 166.446 7.95791C166.591 8.31387 166.664 8.70015 166.664 9.11675C166.664 9.53335 166.591 9.92227 166.446 10.2835C166.301 10.6421 166.1 10.9559 165.841 11.2248C165.585 11.4937 165.287 11.7047 164.947 11.8576C164.61 12.0079 164.247 12.0831 163.86 12.0831ZM163.86 11.6045C164.181 11.6045 164.482 11.5412 164.761 11.4146C165.044 11.2881 165.291 11.1114 165.505 10.8847C165.719 10.6579 165.885 10.3942 166.003 10.0937C166.125 9.79043 166.185 9.46479 166.185 9.11675C166.185 8.7687 166.125 8.4457 166.003 8.14775C165.885 7.84717 165.719 7.58481 165.505 7.36069C165.291 7.13657 165.044 6.96123 164.761 6.83467C164.482 6.70811 164.181 6.64482 163.86 6.64482C163.535 6.64482 163.232 6.70811 162.95 6.83467C162.668 6.95859 162.42 7.13394 162.206 7.36069C161.993 7.58481 161.825 7.84717 161.704 8.14775C161.585 8.4457 161.526 8.7687 161.526 9.11675C161.526 9.46479 161.585 9.79043 161.704 10.0937C161.825 10.3942 161.993 10.6579 162.206 10.8847C162.42 11.1114 162.668 11.2881 162.95 11.4146C163.232 11.5412 163.535 11.6045 163.86 11.6045ZM163.804 10.8847C163.382 10.8847 163.046 10.7449 162.796 10.4654C162.548 10.1859 162.424 9.81548 162.424 9.35405V8.8834C162.424 8.42725 162.548 8.05811 162.796 7.77598C163.046 7.49385 163.382 7.35278 163.804 7.35278C164.218 7.35278 164.541 7.45693 164.773 7.66523C165.005 7.87353 165.116 8.17412 165.106 8.56699L165.098 8.59072H164.52C164.52 8.34023 164.46 8.1583 164.338 8.04492C164.22 7.92891 164.042 7.8709 163.804 7.8709C163.554 7.8709 163.361 7.9645 163.227 8.15171C163.092 8.33628 163.025 8.57886 163.025 8.87944V9.35405C163.025 9.66255 163.092 9.90908 163.227 10.0937C163.361 10.2782 163.554 10.3705 163.804 10.3705C164.042 10.3705 164.22 10.3138 164.338 10.2004C164.457 10.0871 164.516 9.90117 164.516 9.64277H165.094L165.102 9.6665C165.112 10.0646 165.001 10.3679 164.769 10.5762C164.54 10.7818 164.218 10.8847 163.804 10.8847Z" fill="#852472"/>
</svg>
